{
  "source": "C:\\Users\\Peter\\Desktop\\stuff\\MIUN\\quantitative_research\\video_compression\\videos\\BVI-HD\\BVI-HD_CDVL_videos\\ORIG\\Diver_1920x1080_30fps.mp4",
  "output": "C:\\Users\\Peter\\Desktop\\stuff\\MIUN\\quantitative_research\\video_compression\\compressed_videos\\BVI-HD\\vp9\\2\\Diver_1920x1080_30fps_vp9.webm",
  "codec": "vp9",
  "ok": "Input #0, mov,mp4,m4a,3gp,3g2,mj2, from 'C:\\Users\\Peter\\Desktop\\stuff\\MIUN\\quantitative_research\\video_compression\\videos\\BVI-HD\\BVI-HD_CDVL_videos\\ORIG\\Diver_1920x1080_30fps.mp4':\n  Metadata:\n    major_brand     : isom\n    minor_version   : 512\n    compatible_brands: isomiso2avc1mp41\n    encoder         : Lavf54.28.101\n  Duration: 00:00:05.00, start: 0.000000, bitrate: 196798 kb/s\n  Stream #0:0[0x1](und): Video: h264 (High 4:4:4 Predictive) (avc1 / 0x31637661), yuv420p(progressive), 1920x1080, 196794 kb/s, 30 fps, 30 tbr, 30 tbn (default)\n    Metadata:\n      handler_name    : VideoHandler\n      vendor_id       : [0][0][0][0]\n[out#0/webm @ 000001ff1b669380] Codec AVOption b:a (set bitrate (in bits/s)) has not been used for any stream. The most likely reason is either wrong type (e.g. a video option with no video streams) or that it is a private option of some decoder which was not actually used for any stream.\nStream mapping:\n  Stream #0:0 -> #0:0 (h264 (native) -> vp9 (libvpx-vp9))\nPress [q] to stop, [?] for help\n[libvpx-vp9 @ 000001ff1be21440] v1.15.2-100-g40561f514\nOutput #0, webm, to 'C:\\Users\\Peter\\Desktop\\stuff\\MIUN\\quantitative_research\\video_compression\\compressed_videos\\BVI-HD\\vp9\\2\\Diver_1920x1080_30fps_vp9.webm':\n  Metadata:\n    major_brand     : isom\n    minor_version   : 512\n    compatible_brands: isomiso2avc1mp41\n    encoder         : Lavf62.3.100\n  Stream #0:0(und): Video: vp9, yuv420p(tv, progressive), 1920x1080, q=2-31, 2000 kb/s, 30 fps, 1k tbn (default)\n    Metadata:\n      encoder         : Lavc62.11.100 libvpx-vp9\n      handler_name    : VideoHandler\n      vendor_id       : [0][0][0][0]\n    Side data:\n      cpb: bitrate max/min/avg: 0/0/0 buffer size: 2000000 vbv_delay: N/A\nframe=    0 fps=0.0 q=0.0 size=       0KiB time=N/A bitrate=N/A speed=N/A elapsed=0:00:00.51    \nframe=    9 fps=8.5 q=30.0 size=       1KiB time=00:00:00.30 bitrate=  16.9kbits/s speed=0.283x elapsed=0:00:01.05    \nframe=   14 fps=8.8 q=28.0 size=       1KiB time=00:00:00.46 bitrate=  10.9kbits/s speed=0.294x elapsed=0:00:01.58    \nframe=   20 fps=9.5 q=28.0 size=       1KiB time=00:00:00.66 bitrate=   7.6kbits/s speed=0.315x elapsed=0:00:02.11    \nframe=   27 fps= 10 q=28.0 size=       1KiB time=00:00:00.90 bitrate=   5.6kbits/s speed=0.337x elapsed=0:00:02.66    \nframe=   32 fps= 10 q=28.0 size=       1KiB time=00:00:01.06 bitrate=   4.8kbits/s speed=0.334x elapsed=0:00:03.19    \nframe=   39 fps= 10 q=29.0 size=       1KiB time=00:00:01.30 bitrate=   3.9kbits/s speed=0.348x elapsed=0:00:03.73    \nframe=   44 fps= 10 q=28.0 size=       1KiB time=00:00:01.46 bitrate=   3.5kbits/s speed=0.346x elapsed=0:00:04.24    \nframe=   49 fps= 10 q=30.0 size=       1KiB time=00:00:01.63 bitrate=   3.1kbits/s speed=0.343x elapsed=0:00:04.75    \nframe=   54 fps= 10 q=32.0 size=       1KiB time=00:00:01.80 bitrate=   2.8kbits/s speed=0.341x elapsed=0:00:05.27    \nframe=   59 fps= 10 q=19.0 size=       1KiB time=00:00:01.96 bitrate=   2.6kbits/s speed=0.34x elapsed=0:00:05.78    \nframe=   64 fps= 10 q=33.0 size=       1KiB time=00:00:02.13 bitrate=   2.4kbits/s speed=0.338x elapsed=0:00:06.30    \nframe=   70 fps= 10 q=32.0 size=       1KiB time=00:00:02.33 bitrate=   2.2kbits/s speed=0.342x elapsed=0:00:06.82    \nframe=   76 fps= 10 q=33.0 size=       1KiB time=00:00:02.53 bitrate=   2.0kbits/s speed=0.344x elapsed=0:00:07.36    \nframe=   81 fps= 10 q=34.0 size=       1KiB time=00:00:02.70 bitrate=   1.9kbits/s speed=0.343x elapsed=0:00:07.88    \nframe=   87 fps= 10 q=34.0 size=       1KiB time=00:00:02.90 bitrate=   1.7kbits/s speed=0.345x elapsed=0:00:08.39    \nframe=   92 fps= 10 q=34.0 size=       1KiB time=00:00:03.06 bitrate=   1.7kbits/s speed=0.344x elapsed=0:00:08.91    \nframe=   98 fps= 10 q=34.0 size=       1KiB time=00:00:03.26 bitrate=   1.6kbits/s speed=0.346x elapsed=0:00:09.44    \nframe=  104 fps= 10 q=35.0 size=       1KiB time=00:00:03.46 bitrate=   1.5kbits/s speed=0.347x elapsed=0:00:09.98    \nframe=  110 fps= 10 q=38.0 size=       1KiB time=00:00:03.66 bitrate=   1.4kbits/s speed=0.349x elapsed=0:00:10.50    \nframe=  115 fps= 10 q=40.0 size=       1KiB time=00:00:03.83 bitrate=   1.3kbits/s speed=0.348x elapsed=0:00:11.02    \nframe=  120 fps= 10 q=44.0 size=       1KiB time=00:00:04.00 bitrate=   1.3kbits/s speed=0.346x elapsed=0:00:11.56    \nframe=  126 fps= 10 q=43.0 size=       1KiB time=00:00:04.20 bitrate=   1.2kbits/s speed=0.348x elapsed=0:00:12.08    \nframe=  126 fps= 10 q=43.0 size=       1KiB time=00:00:04.20 bitrate=   1.2kbits/s speed=0.333x elapsed=0:00:12.60    \nframe=  126 fps=9.6 q=43.0 size=       1KiB time=00:00:04.20 bitrate=   1.2kbits/s speed=0.32x elapsed=0:00:13.12    \nframe=  126 fps=9.2 q=43.0 size=       1KiB time=00:00:04.20 bitrate=   1.2kbits/s speed=0.308x elapsed=0:00:13.64    \n[out#0/webm @ 000001ff1b669380] video:1014KiB audio:0KiB subtitle:0KiB other streams:0KiB global headers:0KiB muxing overhead: 0.169641%\nframe=  150 fps= 11 q=43.0 Lsize=    1015KiB time=00:00:05.00 bitrate=1663.7kbits/s speed=0.354x elapsed=0:00:14.13    \n",
  "seconds": 14.363597631454468,
  "probe_out": {}
}